<mxfile host="65bd71144e">
    <diagram id="IzlPn-QuSiKv6EytFQ5V" name="Page-1">
        <mxGraphModel dx="1017" dy="563" grid="1" gridSize="10" guides="1" tooltips="1" connect="1" arrows="1" fold="1" page="1" pageScale="1" pageWidth="850" pageHeight="1100" math="0" shadow="0">
            <root>
                <mxCell id="0"/>
                <mxCell id="1" parent="0"/>
                <mxCell id="8" value="" style="shape=image;imageAspect=0;aspect=fixed;verticalLabelPosition=bottom;verticalAlign=top;image=data:image/png,iVBORw0KGgoAAAANSUhEUgAAADAAAAAwCAYAAABXAvmHAAAACXBIWXMAAAsTAAALEwEAmpwYAAAGwElEQVR4nO2Y6XMURRyG418BISEHlwrqB0EuhYicIpcSuRQBlfsQiIAgyGEU5BLxwLKQW0RQIAgEQvIFvhiIgQgm5M7m3uy9yW4Odvq1eqZ7pncys7vBKlNWpaueKmqmE573rV/3VCUqqmt1ra71/1/+rO7xvszoTF9WdKs/MwY+yo1YNMn0RGOGgjcjDt7rcfBcj4fnWjzc1+J97mvxt9zp8bM7N0BmdKY/qwdU+UwuH4tGNYAiHxwgAe70BLjSE+BMTzgMRD3RKQF8tPmsGHSwfTkAlXelJ8J1NRHOqwlbOyWA36z9jMjapwGcVxPhuNKL2K8kTu+EADGh278eSfuUXnBcSfQ60nsP+G8DZJq3742wfUWe0ht2yuXesF3uA9vvlL5ooFzqC+ulfrCm9UN92pMydRcpT6GWcuFp1FDO95eppvw2AFWUX59BpUKr5eyzN0rP9o9TA1D55ntz0OYvQZvkRWvAi5ZHHrS0edDc5oa/1Q1fiwu+Zheaml1o9DvR6HPC2+SAp8kBd6Mdbq8dLq8NTe58EMd5wHYGsJ0GGk4BDScA63HAehSoPwzU/QDUHQJqvwWpOQhSfQCkah9I5W4Qy06QilSQ8m0gZVtASjeClKwHKVoLUrgKUsFS+HPmoDZtyM2gAG0tFkW8zaMKU1GvzwFPI5Wzw+m2weFqgM1pRYO9HvW2OtRZa2C1lsNpzUOLLQOwnQKx7IZUuhVS6SeQSrZAKtkMqeRjSMWbIBVvhFT8EWODQtH6yGD7SfE6NOfOlbQRuvkciPcW4LoMuC6FIQ1wUi4CzguA8zxgPwdYT4BUfaWIm0pz2XWMDxUKUwTW6mDPi1K0/fRnC9dCDRCo3AtSfxyk9nuQ6kMg1d+CVH0tC5HKL0Es+0Ese0EqdoNU7AIp/xxS+WeQyj6FVLYdUuk2Xdtm0lyWy62BVLha4SHlAxPYHnn/GjWYGoDUHQOpMZPfB2LZA1LxhSCfCqlsB5Ono2IgbijNhGWpVQjIrGSsQKDABPpO3bdKDaYFqI1Avnyn0PoOoXU+KkbiwdKqsCy2HIGCZYylCvmcJQz2XIbvXc5YIQTokLxR63xUdOJm0qrkYsaiCOH7l8ihhADfdUxennV960biemlReCECf1PeF3jPBHHPQuVn8xcJAaq+Aak6aCKfGmJkWOvyjFPx1TpxselFOmEq9i5jAQIPwqDu1UIJAaj8gQjlN4VofaWBuIG0KjYfgQfzdLyjQ3w3n0EDLRACUPnK/QZjE4k8a12e8WUG4qI0FxBE789lvB0Gtk8IJgQQ73lh5kX5Yr28UeviqOjFmXSQ7FuMOTLSX5TZAsoz/l7brwTSAtDRYR+p9gdW33xKe3n1gAqtm4orwprkLMbMEMwSUILR3yEE2KN9pMpSdbdNqOb5yOhbNxbXGubCMyDlUd7UkWzwbIayXwilBWh3aMWrMhJ5fet6cTPpZEh50wXegHRPII/D3ycL4WaIAXYZzD27Kos2aAc2rDxvXWxcFBeluejrjGlh4Pu0QFqAdqPDDy2/56n8ahN5flDnIXCfy4ujohNXpanUVIW7UxiTDeDvprD9WiA1gHZl6ueef6T4Vbk8hPxcnfxMNiom4qrwJMZrYZgUHOreVCGAPDrbdaMjzj2/55cGH1hDeTYyauuiuCjNxHInQsp9VWCCDv6c7psYFEYIsCPE6NC55x+pxRHI85HhrYuNT9JJT2CMh/QnZZwJ45U9ukBagKCDy24ddXRWmowOv23M5Fnr6qjoxbnwWMYYxmiBMQJjtUAsjBBA375wZQaNTkfk9a0biY+BlDMaUs4rjFEmsPdqKCWMECBU+6FGh9/xM83l1db14qLwy5BykkDucEYK/06S3yl7eBgliBZAvXkM2s83aD+k/DQTebFxRZqospQRIHdeMmAEQwklBhECbNZunrDtG41OsnZgg+QnsMNJ5fmo0P88KVj69ouM4Saw92qgkXIQIQAfH+HmMZz9SEZnMqRcPvN6ed66KD4c5PYwkNtDQbIpQ4Khz2WGaWHkICP1AbTxCf5ohWhf/lDp5O+Gkmeti+LZXHYwSPYLJgwWwrAgd0YIfxeiZ8B0fELNPv9QGY3OOOGwcnneOm98MBMcBPLHQMbzAvzZoHZBHmWP0gI0ZAzxBOQzkGJwePU3TwTth5NXGx9kIB2KgfLPPcpOon/kdasBrBfihteei7ZX/dINj0PlmW6w/NwdltPdUfFTNMpPRaPsZA+UnohByfEYFB+LRdHRWBQe6YmHP/ZEweG4f0XhkUR70ck+Q9UAXatrda2u1bWiHnP9Aw5IwHNzYU21AAAAAElFTkSuQmCC;" parent="1" vertex="1">
                    <mxGeometry x="81" y="160" width="48" height="48" as="geometry"/>
                </mxCell>
                <mxCell id="9" value="" style="shape=image;imageAspect=0;aspect=fixed;verticalLabelPosition=bottom;verticalAlign=top;image=data:image/png,iVBORw0KGgoAAAANSUhEUgAAADAAAAAwCAYAAABXAvmHAAAACXBIWXMAAAsTAAALEwEAmpwYAAAGwElEQVR4nO2Y6XMURRyG418BISEHlwrqB0EuhYicIpcSuRQBlfsQiIAgyGEU5BLxwLKQW0RQIAgEQvIFvhiIgQgm5M7m3uy9yW4Odvq1eqZ7pncys7vBKlNWpaueKmqmE573rV/3VCUqqmt1ra71/1/+rO7xvszoTF9WdKs/MwY+yo1YNMn0RGOGgjcjDt7rcfBcj4fnWjzc1+J97mvxt9zp8bM7N0BmdKY/qwdU+UwuH4tGNYAiHxwgAe70BLjSE+BMTzgMRD3RKQF8tPmsGHSwfTkAlXelJ8J1NRHOqwlbOyWA36z9jMjapwGcVxPhuNKL2K8kTu+EADGh278eSfuUXnBcSfQ60nsP+G8DZJq3742wfUWe0ht2yuXesF3uA9vvlL5ooFzqC+ulfrCm9UN92pMydRcpT6GWcuFp1FDO95eppvw2AFWUX59BpUKr5eyzN0rP9o9TA1D55ntz0OYvQZvkRWvAi5ZHHrS0edDc5oa/1Q1fiwu+Zheaml1o9DvR6HPC2+SAp8kBd6Mdbq8dLq8NTe58EMd5wHYGsJ0GGk4BDScA63HAehSoPwzU/QDUHQJqvwWpOQhSfQCkah9I5W4Qy06QilSQ8m0gZVtASjeClKwHKVoLUrgKUsFS+HPmoDZtyM2gAG0tFkW8zaMKU1GvzwFPI5Wzw+m2weFqgM1pRYO9HvW2OtRZa2C1lsNpzUOLLQOwnQKx7IZUuhVS6SeQSrZAKtkMqeRjSMWbIBVvhFT8EWODQtH6yGD7SfE6NOfOlbQRuvkciPcW4LoMuC6FIQ1wUi4CzguA8zxgPwdYT4BUfaWIm0pz2XWMDxUKUwTW6mDPi1K0/fRnC9dCDRCo3AtSfxyk9nuQ6kMg1d+CVH0tC5HKL0Es+0Ese0EqdoNU7AIp/xxS+WeQyj6FVLYdUuk2Xdtm0lyWy62BVLha4SHlAxPYHnn/GjWYGoDUHQOpMZPfB2LZA1LxhSCfCqlsB5Ono2IgbijNhGWpVQjIrGSsQKDABPpO3bdKDaYFqI1Avnyn0PoOoXU+KkbiwdKqsCy2HIGCZYylCvmcJQz2XIbvXc5YIQTokLxR63xUdOJm0qrkYsaiCOH7l8ihhADfdUxennV960biemlReCECf1PeF3jPBHHPQuVn8xcJAaq+Aak6aCKfGmJkWOvyjFPx1TpxselFOmEq9i5jAQIPwqDu1UIJAaj8gQjlN4VofaWBuIG0KjYfgQfzdLyjQ3w3n0EDLRACUPnK/QZjE4k8a12e8WUG4qI0FxBE789lvB0Gtk8IJgQQ73lh5kX5Yr28UeviqOjFmXSQ7FuMOTLSX5TZAsoz/l7brwTSAtDRYR+p9gdW33xKe3n1gAqtm4orwprkLMbMEMwSUILR3yEE2KN9pMpSdbdNqOb5yOhbNxbXGubCMyDlUd7UkWzwbIayXwilBWh3aMWrMhJ5fet6cTPpZEh50wXegHRPII/D3ycL4WaIAXYZzD27Kos2aAc2rDxvXWxcFBeluejrjGlh4Pu0QFqAdqPDDy2/56n8ahN5flDnIXCfy4ujohNXpanUVIW7UxiTDeDvprD9WiA1gHZl6ueef6T4Vbk8hPxcnfxMNiom4qrwJMZrYZgUHOreVCGAPDrbdaMjzj2/55cGH1hDeTYyauuiuCjNxHInQsp9VWCCDv6c7psYFEYIsCPE6NC55x+pxRHI85HhrYuNT9JJT2CMh/QnZZwJ45U9ukBagKCDy24ddXRWmowOv23M5Fnr6qjoxbnwWMYYxmiBMQJjtUAsjBBA375wZQaNTkfk9a0biY+BlDMaUs4rjFEmsPdqKCWMECBU+6FGh9/xM83l1db14qLwy5BykkDucEYK/06S3yl7eBgliBZAvXkM2s83aD+k/DQTebFxRZqospQRIHdeMmAEQwklBhECbNZunrDtG41OsnZgg+QnsMNJ5fmo0P88KVj69ouM4Saw92qgkXIQIQAfH+HmMZz9SEZnMqRcPvN6ed66KD4c5PYwkNtDQbIpQ4Khz2WGaWHkICP1AbTxCf5ohWhf/lDp5O+Gkmeti+LZXHYwSPYLJgwWwrAgd0YIfxeiZ8B0fELNPv9QGY3OOOGwcnneOm98MBMcBPLHQMbzAvzZoHZBHmWP0gI0ZAzxBOQzkGJwePU3TwTth5NXGx9kIB2KgfLPPcpOon/kdasBrBfihteei7ZX/dINj0PlmW6w/NwdltPdUfFTNMpPRaPsZA+UnohByfEYFB+LRdHRWBQe6YmHP/ZEweG4f0XhkUR70ck+Q9UAXatrda2u1bWiHnP9Aw5IwHNzYU21AAAAAElFTkSuQmCC;" parent="1" vertex="1">
                    <mxGeometry x="81" y="260" width="48" height="48" as="geometry"/>
                </mxCell>
                <mxCell id="11" value="&lt;h2&gt;Sources&lt;/h2&gt;" style="text;html=1;align=center;verticalAlign=middle;resizable=0;points=[];autosize=1;strokeColor=none;fillColor=none;" parent="1" vertex="1">
                    <mxGeometry x="54" y="50" width="90" height="60" as="geometry"/>
                </mxCell>
                <mxCell id="14" value="" style="endArrow=none;dashed=1;html=1;" parent="1" edge="1">
                    <mxGeometry width="50" height="50" relative="1" as="geometry">
                        <mxPoint x="161" y="356" as="sourcePoint"/>
                        <mxPoint x="161" y="80" as="targetPoint"/>
                    </mxGeometry>
                </mxCell>
                <mxCell id="56" value="" style="endArrow=none;dashed=1;html=1;" parent="1" edge="1">
                    <mxGeometry width="50" height="50" relative="1" as="geometry">
                        <mxPoint x="41" y="356" as="sourcePoint"/>
                        <mxPoint x="41" y="80" as="targetPoint"/>
                    </mxGeometry>
                </mxCell>
                <mxCell id="57" value="" style="endArrow=none;dashed=1;html=1;" parent="1" edge="1">
                    <mxGeometry width="50" height="50" relative="1" as="geometry">
                        <mxPoint x="41" y="360" as="sourcePoint"/>
                        <mxPoint x="161" y="360" as="targetPoint"/>
                    </mxGeometry>
                </mxCell>
                <mxCell id="62" value="" style="endArrow=none;dashed=1;html=1;" parent="1" edge="1">
                    <mxGeometry width="50" height="50" relative="1" as="geometry">
                        <mxPoint x="141" y="80" as="sourcePoint"/>
                        <mxPoint x="161" y="79.75" as="targetPoint"/>
                    </mxGeometry>
                </mxCell>
                <mxCell id="64" value="" style="endArrow=none;dashed=1;html=1;" parent="1" edge="1">
                    <mxGeometry width="50" height="50" relative="1" as="geometry">
                        <mxPoint x="41" y="80" as="sourcePoint"/>
                        <mxPoint x="61" y="80" as="targetPoint"/>
                    </mxGeometry>
                </mxCell>
                <mxCell id="67" value="&lt;h2&gt;Consume&lt;/h2&gt;" style="text;html=1;align=center;verticalAlign=middle;resizable=0;points=[];autosize=1;strokeColor=none;fillColor=none;" parent="1" vertex="1">
                    <mxGeometry x="720" y="51" width="110" height="60" as="geometry"/>
                </mxCell>
                <mxCell id="68" value="" style="endArrow=none;dashed=1;html=1;" parent="1" edge="1">
                    <mxGeometry width="50" height="50" relative="1" as="geometry">
                        <mxPoint x="837" y="357" as="sourcePoint"/>
                        <mxPoint x="837" y="81" as="targetPoint"/>
                    </mxGeometry>
                </mxCell>
                <mxCell id="69" value="" style="endArrow=none;dashed=1;html=1;" parent="1" edge="1">
                    <mxGeometry width="50" height="50" relative="1" as="geometry">
                        <mxPoint x="717" y="357" as="sourcePoint"/>
                        <mxPoint x="717" y="81" as="targetPoint"/>
                    </mxGeometry>
                </mxCell>
                <mxCell id="70" value="" style="endArrow=none;dashed=1;html=1;" parent="1" edge="1">
                    <mxGeometry width="50" height="50" relative="1" as="geometry">
                        <mxPoint x="717" y="361" as="sourcePoint"/>
                        <mxPoint x="837" y="361" as="targetPoint"/>
                    </mxGeometry>
                </mxCell>
                <mxCell id="71" value="" style="endArrow=none;dashed=1;html=1;" parent="1" edge="1">
                    <mxGeometry width="50" height="50" relative="1" as="geometry">
                        <mxPoint x="817" y="81" as="sourcePoint"/>
                        <mxPoint x="837" y="80.75" as="targetPoint"/>
                    </mxGeometry>
                </mxCell>
                <mxCell id="72" value="" style="endArrow=none;dashed=1;html=1;" parent="1" edge="1">
                    <mxGeometry width="50" height="50" relative="1" as="geometry">
                        <mxPoint x="717" y="81" as="sourcePoint"/>
                        <mxPoint x="737" y="81" as="targetPoint"/>
                    </mxGeometry>
                </mxCell>
                <mxCell id="73" value="" style="shape=image;imageAspect=0;aspect=fixed;verticalLabelPosition=bottom;verticalAlign=top;image=data:image/png,iVBORw0KGgoAAAANSUhEUgAAAGAAAABgCAYAAADimHc4AAAACXBIWXMAAAsTAAALEwEAmpwYAAAISklEQVR4nO3Yd3AU5x3G8fdvYht0e7tKDLJTjLHBporebIyFMU0CCwGyjShO771NenOcPukktjGYZoFEnMRxIpDoICFLQsTmqsCSAUmWgkSEQIUns7tXdm9vy+m93L7e2Wfm8y/M+52b/c2IEHfu3Llz586dO3fu3Ll7B6+jLCunvTyrtG1/Vnf7fg/SSfw328qzytrLuTF2v5PZ+K3lno62cg/+n1rLPJ3i/2X3e5lb276s0rYyDzJkj93vZW6X92Z1t+7zIBMu783qsvu9zK11rweZZPd7mdvlUg8yye73MrdLL3mQSXa/l7ld2uNBJtn9XuZ2cReHTLL7vczt4k4OmWT3e5nbWzs4ZJLd72VuLS9yyCS738vcWrZzyCS738vcmrdxyCS738vcml/gkEl2v5e5vbmVQybZ/V7mduF5Dplk93uZ24XnOGSS3e9lbuef5ZBJdr+XuZ3/M4dMIk4cGotyBs8Ulw40rOsePFOMpBrWGVirMlAf11dbiKtVC9CyPQdNf+KoESfGH6gv7rAaeCAh8ED9GhNFGKgrQl/NSjRvHYmmLRwV4rQNNqwrHXrgoljgZPrrVqt0HZiP8B85KsRp669b023267UaWPJaVKHGjZoChP7AUSFO24Bu4NUpB457LK5W1hcR+j1HhTht/UkDF1oLXKsN3Fe7St/plQj+zkuFOG39Kfx6rQTWVyAJ/tZLhTht/VbjWgx8I6pGKT8m8BsvFeK09VmKaz2w1gpZtcz/ay8V4rT1KeKmI7DS9erlGv5feakQp+2GYdx83bh6gSWnRMuS8v3SS4U4bTd0f71DCyxbqnZyKXojfL/wUiFO2/U0BI7GlS0xdO7nXirEabtuFvhkKoEfRe8JI4vxxs+8VIjTdj3Nga8lOh71iOSNn3qpEKetVxnYJG6vbtx4YK1FsmOy13/ipUKctt4Ufr1WAot6JHlaR/Pw+jNeKsRpu2Yl8DGrgR/WsTDm3z/2UiFO27WkgfOGHLjnyEL8N+YhjbNPe6kQp61H8XlIR2DJ4QU6HsTZH3mpEBaHQEkOzm0uhW9zN3ybINsI+DZElAC+9YDvyYgnAN/jEcWAf13EWsC/JqII8K/GTV8hBhpX4NrxvEhg/bhRV6MOiR5QafyhlwphMr5vc4dx+PWK8NH4xuFlhYD/McnNcwXoOSb+upVxtYHj5suq1Bp/wFMhrA3nNpXGw2+0GL5YEX6tYXj4VwH+lZL+M0tMA1+tmofuRJWiuZIz3+epENYG34ZudXi9z02x4le/NiF8kSJ8oSY8AgVAIB83/St0As/VMUft4Bw0fI+nQlibefjHhxB+VSR+QSw+AiuAwHL9wAfjug7O1jELDd/lqRDWRnNgYTm8HB+BZcaBD8zSMTOm/js8FcLa0nFgYSG8bKlh3KgrFaIZSdV/m6dCWJvxgbUafqUifH7S8AgskXRVGAe+UjFd9q9E0yR13+KpENaW2oG1Gn65Inw0/qNAYLFpYNF/ov45VaPumzwVwtroDmy+xfByfAQeMQ0sy1V7NWoKXvsGT4WwtnQeWBiElwQXaQO/qg4s6tSYjM5/yGq/zlMhrM34O281/DLVdz5ZeATzJNrAk1WB4yZpvTIJtV/jqRDWltqBtRp+sSY8gg8DwYWmgTtfmYiOpCZITn+Vp0JYG92BXWIQfpEivBwfwYdMA3f8PdF4ldNf4akQ1pbOAwuD8LIFhnGj3v7b/TruQ82XeSqEtZn96SCVA4uEz40yPIIPSswCq/w1alxM9Zd4KoS1pXZgrYZfqAmP4ANAcH6SuOrAovaYsWh/Wa36izwVwtrSeWChCr9AEV6Oj+A8ReCxSQO3v3yv1l9E90hOfUGgQlhbOg8sDMIjJJprGljUpjJGtl926vMCFcLazP50kMqBRcLnRhkeoTkSs8Cyu3WMxsnPCVQIa0vtwFoNP18THqHZQGiWceDy0ZJWjbtiTnxWoEJYWzoPLGK/+rmK+LNj8RGaaRpYUhb1AY0TnxGoENaWzgMLg/CyGYZxZe/HZdG+RO+THP+0QIWwNuPvvNXw85J+bpThEZouMQusslf0XpXjnxKoENaW2oG1Gn6WJjxC04DQVNPAokuSO2Wlasc+KVAhrC2dBxaq8DMU4eX4COdGAt+pE/gOHTm49JLs6CcEKoS1mf3pIJUDC4PwsinJA0fiRl2MGaW2ZxSOflygQlib8XfeaviZST83CMXDIzxZYhZYNlLH7TjyMYEKYW2pHVir4adqwiM8CQhPNIwr2X073lJ5j8qRjwpUCGtL54GFKvwURXg5PsITTANLdonendThjwhUCGsz+9NBKgcWBuFl400CZ0taRDuVhJjDH6ZDWJvxd95q+FzT8AjfLzELrMajZYfaoQ8KVAhrS+3ATjM8sIiFn6gJj/B9QHicOnBC3KjmHV61F6M4VD0lUCGsLZ0HFqrw4xXh5fhoGouWxLixwJwOj2y7rGpzNhXC2sz+dJDKgYVBeNm9poHflGQlt20EKjdlUyGszfg7bzX8BNPwaLpHoht4mxxYa7jkguiF4ajcmE2FsDaEZnSn68AiFn6cJjyaxmAwONo0cNxtGk3P3oqDG7KHriT7CmFtCE0vS9eBhSp8NP6YiLvRU3OHblzZrbiwVe381ltizj4zAgdKsoesokTYTVgbwrljEJzamVr48Tqfm+ThRYP+u9Cya4Rh4JjnRe9SCW25BYc+xOPA+uwhEt6uLB45irA4BHJzEM7dg/DkLvXnxmr4sfrhg6PRU52D5p3DdePGDZM9NwxNEaEtw9D49G2ofIpHxZPZQ9FV8YSwm9n47ty5c+fOnTt37ty5I++U/Q+CDbFRidA9tAAAAABJRU5ErkJggg==;" parent="1" vertex="1">
                    <mxGeometry x="735" y="130" width="70" height="70" as="geometry"/>
                </mxCell>
                <mxCell id="76" value="" style="shape=image;imageAspect=0;aspect=fixed;verticalLabelPosition=bottom;verticalAlign=top;image=data:image/png,iVBORw0KGgoAAAANSUhEUgAAAEAAAABACAYAAACqaXHeAAAACXBIWXMAAAsTAAALEwEAmpwYAAAHYElEQVR4nO1baWyURRj+iGcC+lujiSYeUfyBR+TamV2sQEgMQoxEU0BiTDgCVvCHGhODFv5plNLidmZLC43S0lIKpeWyy48GS7kiSIFSlO7MLvQubS29t695Z+fbbu97j7ZvMsl3zPU+8877PjPffIYxLdMyKpkbV/okTZRWysVGymUcYfII4aKQMumiXNYRLuspl4BJX+OzMszjyyt3USY2YB0Lk6qfMCJBbKzsFcLEDsrEOcJFh6ngWBPWpYDhIhbbMMJNrFxQyuTZwE4vcrjh47QKiDlWCzvPNEJCYTPsu9QKWdc6IPeGF/JuesF5G1TCa3yG7zAP5sUyWBbrwLp6AMJkgYUJEmq9Ddt2eJgwaadMdGHHliZ74Mu8OuDnW+DkrS6/gmNNWBfWuS23TrWhgFBtij2rMuChkAFAudyJnYlKkl04YqfGUekBwSjpgp3ORtWmnh6xIQOAcFGDndh7oXXIjo903g9VX9KFFtMSqkIGANWdxc4EGwDHeQ0AlxByAKKS3BB7plGZZzCmALaFbYYNAFSnJcke2JpbB6xofJ3giZIuVSfWjW30bjfkAOy92AqrD1ZCnzCYXgExObXKacUXNkPKpVbI/NsXBjGZCpr3mVc7VJ74wgeww9moymIdvcPg2oxKSL7YGj4AOLUiaVfa4fv8Blh3qAreCTDRsSasa11mFfyQ3wDpV9r7+JWwAcAZkDAk4mj+VNAE356qh41HaiA6vQJW/nYP3tt/F5ameMDmkCrhNT7Dd5gH82KZHwuaIOVi64DhNewAoMP04OOVwh4AOsGAhA0ASQPwgIkEJCJ5AB0HAKZ5QPI0D4BpHnA7zJygc5oHQFDCXsQBQKd5gJwwQBKLpigPOH7TC9vzG3pEhknPA06WdMGv55pha24tLJ6MPCBPb4vjO5MHxDob4bOsang/9V4fHoCR4+eCpvABwDnBPKC/ZA0nC3COgQeYRMeqr3VqJ0ymW5mMttrdLy1JLZ+JCa8pl6sJkwcxT3d+sSIsAKCjdHL4TcEcUcJE1kImXhiqbZtDvkiZOKzLdFImtxiRyAPizj7QygsvYfIrs24LF6/5PpDKYsJEEyZ1zeUuYnfNNvNhGSyLX4oIkytDAkBi0eh4QHZxJyxOdvu+8GjlZ2cUP0qYSFBKDTD/ccQJF/GYtxsE9a5hQdKd54IOwKIkN3x3ul7F6JHwgC05tX6zN5WnXOarZ1y24md16pBzTR9AmHseZWK3fodl8xUIADO6p4NMCToAVCeM0V/k1iqLGIoU4ehrJ9huznnfyKvp4FnIPa8P1K41qewNzOMDSsT7fYJynqLTZi97PqgAOC60QHQvHoDKfZRWob7oxmoesO9yGxy82g5HizvV0laPWLp/zqNpM9kymPKBIKAlqDLaJ+jogBa1LTQ84C8fD1iTUekPcUPGcyajdV1x6hkTu4fbvmkxhMlf1L3DvUbfnzaCIXQQL3+8pAv2X25Ta/pvTtyH9dnVii1+8Hs5LNvn8Yc9NF1d13VVn0POHW771kTPAj3i1/CecM/LGoA7RrjzgCjNFG0JlbNU5zHM4XoitXzmcNvHs0PaahoD73FqGOHOA6L29gKAi/8C74d9EEuHv/4AmXAhXFSPdj9geeq9fqcAhrqxTgHKhTCCIQRPhOkjMujpR7IfgCs9fb/a13m5a8xOkLnW+uqQOUawDklRLvaYh6TM/QB7UbPayx+K//cbBrlsxRA3VNuUud6kTLZhGauj7FX1jMsMbQFbjWCKhQmCR9cCwxuu4VcdqIDPc2rVbhFyfnM/AHlAxtUOPxEypwGSGpMIDQaCUl4TIQyf+EyvFNsRwPl2+YwRyoOShMs/R3RQkonD/VFhBMTC3fP9y+FEzwJl9ky2mVT4LXbpEUWFucjWdXEjHMSWUDmLOFwW4hDrcY5iBxEYyuS/6lgsk/d7LnACFkNcxKsl7iCLIfQV/sUQF193vxcnlsWVPmZEilAuVviUFV5UBEdzoOUwevsey2GAGT7lhReJVfd+oThOmCvGYnfPMSJBKJebTUeKloLzeagyGPLwULWi01wqp4pbcsgy/ZbCZf1IwmpIxZIolpvTQvkPJjMtXHyCfgUJDyb09pSJdYSLQ4E+BkcelT9d2gWfZlWZVuCNOBBs3P0sOrGe+30D+AHcE2CCEyZO4j2OvF95JuusTL6NITbiQPADweVmwkQeZeIWLpHRcVIu/1HOlLliKHM9rfKmlD2Oji8gotRimMR36CtMMCMOhJGIAkSbPY68nxYzeRef4w70pAbBYnfP6f4DRaT5fIVP+bWZlWqrbtPRmskNAmHueQG/4bSbypvrkz9KYWqBsDTF02eTdmqA4BBvaYepvkah0oEg5JcCbA4AAam2MZktYdPRviDgPYKjQSgfyS7UpAEBV6Tv6l2pwC9NUwKEYze88OGBctMCLuO+hjFZhQT4hA3ZNXDkeqdfecpEiUmoJrWQAEvwmz2TN2wJZU8ZU0WID4Ryv9lPJeVNUR9Y7a7ZIf3Z0ogw+R8Hnv05PJTTGwAAAABJRU5ErkJggg==;" parent="1" vertex="1">
                    <mxGeometry x="743" y="260" width="64" height="64" as="geometry"/>
                </mxCell>
                <mxCell id="80" value="&lt;h2&gt;Data Warehouse&lt;/h2&gt;" style="text;html=1;align=center;verticalAlign=middle;resizable=0;points=[];autosize=1;strokeColor=none;fillColor=none;" parent="1" vertex="1">
                    <mxGeometry x="360" y="51" width="160" height="60" as="geometry"/>
                </mxCell>
                <mxCell id="81" value="" style="endArrow=none;dashed=1;html=1;" parent="1" edge="1">
                    <mxGeometry width="50" height="50" relative="1" as="geometry">
                        <mxPoint x="670" y="376" as="sourcePoint"/>
                        <mxPoint x="670" y="100" as="targetPoint"/>
                    </mxGeometry>
                </mxCell>
                <mxCell id="82" value="" style="endArrow=none;dashed=1;html=1;" parent="1" edge="1">
                    <mxGeometry width="50" height="50" relative="1" as="geometry">
                        <mxPoint x="210" y="376" as="sourcePoint"/>
                        <mxPoint x="210" y="100" as="targetPoint"/>
                    </mxGeometry>
                </mxCell>
                <mxCell id="83" value="" style="endArrow=none;dashed=1;html=1;" parent="1" edge="1">
                    <mxGeometry width="50" height="50" relative="1" as="geometry">
                        <mxPoint x="210" y="380" as="sourcePoint"/>
                        <mxPoint x="670" y="380" as="targetPoint"/>
                    </mxGeometry>
                </mxCell>
                <mxCell id="84" value="" style="endArrow=none;dashed=1;html=1;" parent="1" edge="1">
                    <mxGeometry width="50" height="50" relative="1" as="geometry">
                        <mxPoint x="210" y="100" as="sourcePoint"/>
                        <mxPoint x="673" y="100" as="targetPoint"/>
                    </mxGeometry>
                </mxCell>
                <mxCell id="85" value="" style="rounded=1;whiteSpace=wrap;html=1;fillColor=#FFC99B;strokeColor=#FF9999;" vertex="1" parent="1">
                    <mxGeometry x="240" y="120" width="110" height="30" as="geometry"/>
                </mxCell>
                <mxCell id="86" value="" style="rounded=1;whiteSpace=wrap;html=1;fillColor=#D4D4D4;strokeColor=#707070;" vertex="1" parent="1">
                    <mxGeometry x="385" y="120" width="110" height="30" as="geometry"/>
                </mxCell>
                <mxCell id="87" value="" style="rounded=1;whiteSpace=wrap;html=1;fillColor=#FCFFA9;strokeColor=#FFE327;" vertex="1" parent="1">
                    <mxGeometry x="530" y="120" width="110" height="30" as="geometry"/>
                </mxCell>
                <mxCell id="89" value="" style="shape=flexArrow;endArrow=classic;html=1;" edge="1" parent="1">
                    <mxGeometry width="50" height="50" relative="1" as="geometry">
                        <mxPoint x="150" y="220" as="sourcePoint"/>
                        <mxPoint x="233" y="220" as="targetPoint"/>
                    </mxGeometry>
                </mxCell>
                <mxCell id="91" value="" style="shape=flexArrow;endArrow=classic;html=1;" edge="1" parent="1">
                    <mxGeometry width="50" height="50" relative="1" as="geometry">
                        <mxPoint x="658" y="220" as="sourcePoint"/>
                        <mxPoint x="741" y="220" as="targetPoint"/>
                    </mxGeometry>
                </mxCell>
            </root>
        </mxGraphModel>
    </diagram>
</mxfile>